<?xml version="1.0" encoding="UTF-8" standalone="no"?>
<svg
   xmlns:dc="http://purl.org/dc/elements/1.1/"
   xmlns:cc="http://creativecommons.org/ns#"
   xmlns:rdf="http://www.w3.org/1999/02/22-rdf-syntax-ns#"
   xmlns:svg="http://www.w3.org/2000/svg"
   xmlns="http://www.w3.org/2000/svg"
   xmlns:sodipodi="http://sodipodi.sourceforge.net/DTD/sodipodi-0.dtd"
   xmlns:inkscape="http://www.inkscape.org/namespaces/inkscape"
   width="2201.4951"
   height="2256.9993"
   viewBox="0 0 880.54257 902.74283"
   version="1.1"
   id="svg76"
   sodipodi:docname="new.svg"
   inkscape:version="1.0.2 (1.0.2+r75+1)">
  <metadata
     id="metadata82">
    <rdf:RDF>
      <cc:Work
         rdf:about="">
        <dc:format>image/svg+xml</dc:format>
        <dc:type
           rdf:resource="http://purl.org/dc/dcmitype/StillImage" />
        <dc:title></dc:title>
      </cc:Work>
    </rdf:RDF>
  </metadata>
  <defs
     id="defs80" />
  <sodipodi:namedview
     pagecolor="#ffffff"
     bordercolor="#666666"
     borderopacity="1"
     objecttolerance="10"
     gridtolerance="10"
     guidetolerance="10"
     inkscape:pageopacity="0"
     inkscape:pageshadow="2"
     inkscape:window-width="1853"
     inkscape:window-height="1016"
     id="namedview78"
     showgrid="true"
     inkscape:zoom="0.24324473"
     inkscape:cx="560.10386"
     inkscape:cy="1380.7871"
     inkscape:window-x="67"
     inkscape:window-y="27"
     inkscape:window-maximized="1"
     inkscape:current-layer="svg76"
     inkscape:document-rotation="0"
     fit-margin-top="0"
     fit-margin-left="0"
     fit-margin-right="0"
     fit-margin-bottom="0">
    <inkscape:grid
       type="xygrid"
       id="grid3255"
       originx="-67.381438"
       originy="-37.750134" />
  </sodipodi:namedview>
  <path
     d="m 0,542.254 c 0,-31.38872 11.104491,-58.18757 33.313702,-80.39658 22.20874,-22.20899 49.00765,-33.31349 80.396588,-33.31349 31.38848,0 58.18737,11.1045 80.3966,33.31349 22.20878,22.20901 33.3135,49.00786 33.3135,80.39658 0,31.38873 -11.10448,58.18761 -33.3135,80.39663 -22.20902,22.20899 -49.00789,33.31371 -80.3966,33.31371 -31.388938,0 -58.187848,-11.10449 -80.396588,-33.31371 C 11.104491,600.44182 0,573.64252 0,542.254 Z m 12.437018,0 c 0,27.83554 9.920048,51.67297 29.760074,71.51327 19.84003,19.83977 43.67771,29.76002 71.513198,29.76002 27.83528,0 51.67294,-9.92001 71.51302,-29.76002 19.84002,-19.84007 29.76005,-43.67773 29.76005,-71.51327 0,-27.83528 -9.9198,-51.67292 -29.76005,-71.51297 -19.84008,-19.84003 -43.67797,-29.76009 -71.51302,-29.76009 -27.835488,0 -51.672948,9.92006 -71.513198,29.76009 -19.840026,19.84005 -29.760074,43.67769 -29.760074,71.51297 z m 31.981194,24.4299 c -0.59225,-0.59223 -0.59225,-1.18445 0,-1.77669 1.18426,-1.18449 2.66507,-1.62868 4.44157,-1.33257 1.77671,0.29614 2.81313,0.59227 3.10925,0.88839 2.07286,0.88835 4.36792,2.88704 6.88469,5.99653 2.5168,3.10926 4.51573,5.25601 5.99654,6.44051 7.10689,5.9224 14.36159,6.36655 21.76462,1.33256 0.59221,-2.07288 1.55473,-3.84958 2.88702,-5.33042 1.33233,-1.48061 2.59118,-2.51677 3.77565,-3.10926 1.18469,-0.59222 3.25756,-1.4806 6.21875,-2.66507 -9.77216,-0.88838 -17.69328,-2.59118 -23.76374,-5.10818 -6.07046,-2.51701 -10.88253,-5.70021 -14.43598,-9.54976 -4.7379,-5.33015 -7.6252,-12.28901 -8.66163,-20.87647 -1.03664,-8.58749 -0.37025,-16.43465 1.99892,-23.54155 1.77674,-4.4418 4.29376,-8.4392 7.55085,-11.99286 -2.36896,-7.40299 -1.92478,-15.84243 1.33253,-25.31827 9.47585,0.59227 18.06336,3.84957 25.76244,9.77196 14.805998,-3.84956 30.204248,-3.99762 46.194508,-0.44417 2.07284,-1.4806 5.25624,-3.33123 9.54976,-5.55236 4.29376,-2.22089 9.69806,-3.47954 16.21268,-3.77564 1.18451,3.2573 1.99895,7.10686 2.44314,11.54866 0.44415,4.44181 0.22229,8.5875 -0.6662,12.43705 6.81055,7.10687 10.36401,16.58269 10.6601,28.42751 0,9.47586 -1.62841,17.32307 -4.88574,23.54154 -3.25731,6.21855 -9.03165,11.40064 -17.32302,15.54609 -5.62628,2.66532 -13.02931,4.29374 -22.209,4.88596 4.14591,2.07285 7.18103,4.21986 9.1058,6.44076 1.92499,2.22088 3.18339,5.70019 3.77586,10.43812 v 13.99199 l 0.44394,13.54738 c 0.88837,1.48084 1.92503,2.73925 3.10952,3.77588 1.18449,1.03644 2.22091,1.77674 3.10926,2.22088 0.88812,0.4442 1.18445,1.11057 0.88812,1.99895 -0.2961,0.88835 -1.4806,1.33253 -3.55322,1.33253 -5.03427,0 -9.03166,-1.77669 -11.99286,-5.3304 -0.88834,-1.48059 -1.33251,-3.25706 -1.33251,-5.33016 v -21.32061 c 0,-2.36898 -0.59225,-4.07178 -1.77673,-5.10819 -1.18451,-1.03668 -2.36899,-1.7028 -3.55344,-1.99893 v 27.98334 c 0,5.03403 0.59222,8.29137 1.7767,9.77196 1.1845,1.4806 1.92478,2.96141 2.22116,4.44184 0.29607,0.29608 0.074,0.51806 -0.66642,0.66612 -0.74005,0.14784 -1.99868,-0.074 -3.77565,-0.66612 -3.84954,-0.88842 -6.51461,-2.88731 -7.99523,-5.99657 -1.48059,-3.10928 -2.2209,-6.44072 -2.2209,-9.9942 v -27.53847 h -5.77435 v 27.53917 c 0,3.55347 -0.74051,6.95904 -2.22111,10.21614 -2.07261,4.14591 -5.92243,6.36658 -11.548468,6.66272 -0.88832,-0.29614 -1.33253,-0.59227 -1.33253,-0.88814 0.29613,-0.29636 1.18447,-1.77671 2.66509,-4.44181 0.29612,-0.59224 0.66638,-1.77674 1.11056,-3.55343 0.444398,-1.77671 0.666398,-3.84959 0.666398,-6.21854 v -27.98358 c -1.184518,0.29616 -2.295088,0.96228 -3.331488,1.99895 -1.0364,1.03665 -1.55473,2.73921 -1.55473,5.10819 v 21.32063 c 0,2.07263 -0.44417,3.84957 -1.33253,5.33017 -2.66511,3.55344 -6.66272,5.33037 -11.99265,5.33037 -2.07283,0 -3.25733,-0.44415 -3.55345,-1.33253 -0.29636,-0.59226 -0.2223,-1.11056 0.22231,-1.55475 0.44442,-0.44418 1.11058,-0.96251 1.99894,-1.55473 0.88837,-0.59225 1.48058,-1.03666 1.77673,-1.33256 1.18444,-0.88833 2.07259,-2.07282 2.66505,-3.55341 0.88838,-1.18451 1.11035,-4.29378 0.66616,-9.32778 -0.44417,-5.03406 -0.5183,-8.29137 -0.22231,-9.77197 -7.69936,2.66506 -15.54632,1.33228 -23.54178,-3.99763 -2.36895,-2.36897 -4.7379,-5.77456 -7.10689,-10.21615 -1.77671,-3.25754 -5.33015,-7.10709 -10.6601,-11.54892 z"
     id="path74"
     style="fill:#cccccc;stroke-width:0.227326;stroke-miterlimit:4;stroke-dasharray:none" />
  <g
     transform="matrix(0.5561235,0,0,0.5561235,509.9975,377.69579)"
     fill="#61dafb"
     id="g413">
    <path
       d="m 666.3,296.5 c 0,-32.5 -40.7,-63.3 -103.1,-82.4 14.4,-63.6 8,-114.2 -20.2,-130.4 -6.5,-3.8 -14.1,-5.6 -22.4,-5.6 v 22.3 c 4.6,0 8.3,0.9 11.4,2.6 13.6,7.8 19.5,37.5 14.9,75.7 -1.1,9.4 -2.9,19.3 -5.1,29.4 -19.6,-4.8 -41,-8.5 -63.5,-10.9 -13.5,-18.5 -27.5,-35.3 -41.6,-50 32.6,-30.3 63.2,-46.9 84,-46.9 V 78 C 493.2,78 457.2,97.6 420.8,131.6 384.4,97.8 348.4,78.4 320.9,78.4 v 22.3 c 20.7,0 51.4,16.5 84,46.6 -14,14.7 -28,31.4 -41.3,49.9 -22.6,2.4 -44,6.1 -63.6,11 -2.3,-10 -4,-19.7 -5.2,-29 -4.7,-38.2 1.1,-67.9 14.6,-75.8 3,-1.8 6.9,-2.6 11.5,-2.6 V 78.5 c -8.4,0 -16,1.8 -22.6,5.6 -28.1,16.2 -34.4,66.7 -19.9,130.1 -62.2,19.2 -102.7,49.9 -102.7,82.3 0,32.5 40.7,63.3 103.1,82.4 -14.4,63.6 -8,114.2 20.2,130.4 6.5,3.8 14.1,5.6 22.5,5.6 27.5,0 63.5,-19.6 99.9,-53.6 36.4,33.8 72.4,53.2 99.9,53.2 8.4,0 16,-1.8 22.6,-5.6 28.1,-16.2 34.4,-66.7 19.9,-130.1 62,-19.1 102.5,-49.9 102.5,-82.3 z M 536.1,229.8 c -3.7,12.9 -8.3,26.2 -13.5,39.5 -4.1,-8 -8.4,-16 -13.1,-24 -4.6,-8 -9.5,-15.8 -14.4,-23.4 14.2,2.1 27.9,4.7 41,7.9 z m -45.8,106.5 c -7.8,13.5 -15.8,26.3 -24.1,38.2 -14.9,1.3 -30,2 -45.2,2 -15.1,0 -30.2,-0.7 -45,-1.9 -8.3,-11.9 -16.4,-24.6 -24.2,-38 -7.6,-13.1 -14.5,-26.4 -20.8,-39.8 6.2,-13.4 13.2,-26.8 20.7,-39.9 7.8,-13.5 15.8,-26.3 24.1,-38.2 14.9,-1.3 30,-2 45.2,-2 15.1,0 30.2,0.7 45,1.9 8.3,11.9 16.4,24.6 24.2,38 7.6,13.1 14.5,26.4 20.8,39.8 -6.3,13.4 -13.2,26.8 -20.7,39.9 z m 32.3,-13 c 5.4,13.4 10,26.8 13.8,39.8 -13.1,3.2 -26.9,5.9 -41.2,8 4.9,-7.7 9.8,-15.6 14.4,-23.7 4.6,-8 8.9,-16.1 13,-24.1 z M 421.2,430 c -9.3,-9.6 -18.6,-20.3 -27.8,-32 9,0.4 18.2,0.7 27.5,0.7 9.4,0 18.7,-0.2 27.8,-0.7 -9,11.7 -18.3,22.4 -27.5,32 z m -74.4,-58.9 c -14.2,-2.1 -27.9,-4.7 -41,-7.9 3.7,-12.9 8.3,-26.2 13.5,-39.5 4.1,8 8.4,16 13.1,24 4.7,8 9.5,15.8 14.4,23.4 z M 420.7,163 c 9.3,9.6 18.6,20.3 27.8,32 -9,-0.4 -18.2,-0.7 -27.5,-0.7 -9.4,0 -18.7,0.2 -27.8,0.7 9,-11.7 18.3,-22.4 27.5,-32 z m -74,58.9 c -4.9,7.7 -9.8,15.6 -14.4,23.7 -4.6,8 -8.9,16 -13,24 -5.4,-13.4 -10,-26.8 -13.8,-39.8 13.1,-3.1 26.9,-5.8 41.2,-7.9 z m -90.5,125.2 c -35.4,-15.1 -58.3,-34.9 -58.3,-50.6 0,-15.7 22.9,-35.6 58.3,-50.6 8.6,-3.7 18,-7 27.7,-10.1 5.7,19.6 13.2,40 22.5,60.9 -9.2,20.8 -16.6,41.1 -22.2,60.6 -9.9,-3.1 -19.3,-6.5 -28,-10.2 z M 310,490 c -13.6,-7.8 -19.5,-37.5 -14.9,-75.7 1.1,-9.4 2.9,-19.3 5.1,-29.4 19.6,4.8 41,8.5 63.5,10.9 13.5,18.5 27.5,35.3 41.6,50 -32.6,30.3 -63.2,46.9 -84,46.9 -4.5,-0.1 -8.3,-1 -11.3,-2.7 z m 237.2,-76.2 c 4.7,38.2 -1.1,67.9 -14.6,75.8 -3,1.8 -6.9,2.6 -11.5,2.6 -20.7,0 -51.4,-16.5 -84,-46.6 14,-14.7 28,-31.4 41.3,-49.9 22.6,-2.4 44,-6.1 63.6,-11 2.3,10.1 4.1,19.8 5.2,29.1 z m 38.5,-66.7 c -8.6,3.7 -18,7 -27.7,10.1 -5.7,-19.6 -13.2,-40 -22.5,-60.9 9.2,-20.8 16.6,-41.1 22.2,-60.6 9.9,3.1 19.3,6.5 28.1,10.2 35.4,15.1 58.3,34.9 58.3,50.6 -0.1,15.7 -23,35.6 -58.4,50.6 z"
       id="path409" />
    <circle
       r="45.700001"
       cy="296.5"
       cx="420.89999"
       id="circle411" />
  </g>
  <g
     fill="none"
     fill-rule="evenodd"
     id="g652"
     transform="matrix(0.61703139,0,0,0.61703139,252.3119,536.51918)">
    <g
       transform="translate(2,80)"
       id="g644">
      <path
         d="m 2.618,182.23114 0.009,313.477 c 0,7.631 6.206,13.817 13.861,13.817 l 282.44,-0.009 c 7.655,0 13.86,-6.186 13.86,-13.817 l -0.001,-48.856 -0.234,-26.927 -0.009,-297.692 c 0,-7.631 -6.206,-13.817 -13.861,-13.817 l -222.253,0.007 -73.811,73.752 z"
         fill="#ffffff"
         id="path576" />
      <path
         d="m 4.618,182.99614 0.009,312.712 c 0,6.516 5.321,11.817 11.861,11.817 l 282.44,-0.008 c 6.54,-10e-4 11.86,-5.303 11.86,-11.819 l -0.002,-48.855 -0.233,-26.909 -0.009,-297.71 c 0,-6.515 -5.321,-11.817 -11.861,-11.817 l -221.425,0.007 z m 11.87,328.529 c -8.745,0 -15.861,-7.095 -15.861,-15.817 l -0.009,-313.477 c 0,-0.015 0,-0.03 0.001,-0.045 l 0.001,-0.065 c 0.012,-0.515 0.221,-1.006 0.586,-1.37 l 73.81,-73.752 c 0.375,-0.375 0.884,-0.585 1.414,-0.585 l 222.253,-0.007 c 8.746,0 15.861,7.096 15.861,15.817 l 0.009,297.692 0.233,26.909 0.002,48.873 c 0,8.721 -7.114,15.818 -15.859,15.819 z"
         fill="#5d7183"
         stroke="#587185"
         stroke-width="4"
         id="path578" />
      <path
         d="m 74.582,113.24214 -67.135,67.141 54.587,-0.002 c 6.92,0 12.55,-5.63 12.55,-12.551 z m -71.964,71.141 c -0.809,0 -1.538,-0.487 -1.848,-1.234 -0.309,-0.748 -0.138,-1.608 0.434,-2.18 l 73.964,-73.969 c 0.572,-0.573 1.432,-0.745 2.18,-0.434 0.747,0.31 1.234,1.039 1.234,1.848 l 0.002,59.416 c 0,9.126 -7.424,16.551 -16.55,16.551 z"
         fill="#5d7183"
         stroke="#587185"
         stroke-width="4"
         id="path580" />
      <path
         d="M 219.69,214.11814 H 89.534 c -1.657,0 -3,-1.343 -3,-3 0,-1.656 1.343,-3 3,-3 H 219.69 c 1.657,0 3,1.344 3,3 0,1.657 -1.343,3 -3,3"
         fill="#bbdff5"
         id="path582" />
      <g
         fill="#5d7183"
         id="g590">
        <path
           d="M 277.103,283.61914 H 32.121 c -1.105,0 -2,-0.895 -2,-2 0,-1.104 0.895,-2 2,-2 h 244.982 c 1.104,0 2,0.896 2,2 0,1.105 -0.896,2 -2,2"
           id="path584" />
        <path
           d="M 277.103,255.41914 H 32.121 c -1.105,0 -2,-0.896 -2,-2 0,-1.105 0.895,-2 2,-2 h 244.982 c 1.104,0 2,0.895 2,2 0,1.104 -0.896,2 -2,2"
           id="path586" />
        <path
           d="M 155.533,311.82014 H 32.121 c -1.105,0 -2,-0.896 -2,-2 0,-1.105 0.895,-2 2,-2 h 123.412 c 1.104,0 2,0.895 2,2 0,1.104 -0.896,2 -2,2"
           id="path588" />
      </g>
      <path
         d="M 219.69,353.22114 H 89.534 c -1.657,0 -3,-1.343 -3,-3 0,-1.657 1.343,-3 3,-3 H 219.69 c 1.657,0 3,1.343 3,3 0,1.657 -1.343,3 -3,3"
         fill="#bbdff5"
         id="path592" />
      <path
         d="M 277.103,422.72214 H 32.121 c -1.105,0 -2,-0.896 -2,-2 0,-1.105 0.895,-2 2,-2 h 244.982 c 1.104,0 2,0.895 2,2 0,1.104 -0.896,2 -2,2"
         fill="#5d7183"
         id="path594" />
      <path
         d="M 277.103,394.52214 H 32.121 c -1.105,0 -2,-0.896 -2,-2 0,-1.105 0.895,-2 2,-2 h 244.982 c 1.104,0 2,0.895 2,2 0,1.104 -0.896,2 -2,2"
         fill="#5d7183"
         id="path596" />
      <path
         d="M 215.533,450.92214 H 32.121 c -1.105,0 -2,-0.895 -2,-2 0,-1.104 0.895,-2 2,-2 h 183.412 c 1.104,0 2,0.896 2,2 0,1.105 -0.896,2 -2,2"
         fill="#5d7183"
         id="path598" />
      <path
         d="m 243.351,138.69914 0.009,313.477 c 10e-4,7.631 6.206,13.817 13.861,13.816 l 282.44,-0.008 c 7.655,0 13.86,-6.186 13.86,-13.817 l -10e-4,-48.856 -0.234,-26.927 -0.009,-297.692001 c 0,-7.631 -6.206,-13.817 -13.861,-13.817 l -222.253,0.007 -73.81,73.751001 z"
         fill="#ffffff"
         id="path600" />
      <path
         d="m 245.351,139.46414 0.009,312.712 c 10e-4,6.516 5.321,11.816 11.862,11.816 l 282.439,-0.007 c 3.169,0 6.148,-1.231 8.389,-3.464 2.238,-2.233 3.471,-5.2 3.471,-8.355 l -10e-4,-48.855 -0.234,-26.909 -0.008,-297.710001 c -10e-4,-6.516 -5.322,-11.817 -11.862,-11.817 l -221.424,0.006 z m 11.871,328.528 c -8.746,0 -15.861,-7.094 -15.862,-15.816 l -0.009,-313.477 c 0,-0.015 0,-0.03 0,-0.045 l 0.002,-0.065 c 0.012,-0.516 0.221,-1.006 0.586,-1.37 L 315.75,63.467139 c 0.375,-0.375 0.883,-0.586 1.413,-0.586 l 222.253,-0.006 c 8.745,0 15.861,7.095 15.862,15.817 l 0.008,297.692001 0.234,26.909 10e-4,48.873 c 0.001,4.227 -1.65,8.199 -4.648,11.188 -2.995,2.985 -6.977,4.63 -11.212,4.631 z"
         fill="#5d7183"
         stroke="#587185"
         stroke-width="4"
         id="path602" />
      <path
         d="m 315.316,69.710139 -67.136,67.140001 54.587,-0.001 c 3.352,0 6.504,-1.306 8.874,-3.677 2.371,-2.37 3.676,-5.522 3.676,-8.875 z m -71.965,71.140001 c -0.809,0 -1.538,-0.487 -1.848,-1.234 -0.309,-0.748 -0.138,-1.608 0.434,-2.18 l 73.965,-73.969001 c 0.571,-0.573 1.432,-0.743 2.179,-0.433 0.747,0.309 1.235,1.038 1.235,1.847 l 0.001,59.416001 c 10e-4,9.126 -7.424,16.551 -16.55,16.552 z"
         fill="#6a79a8"
         id="path604" />
      <path
         d="M 460.423,170.58614 H 330.266 c -1.656,0 -3,-1.344 -3,-3 0,-1.657 1.344,-3 3,-3 h 130.157 c 1.657,0 3,1.343 3,3 0,1.656 -1.343,3 -3,3"
         fill="#bbdff5"
         id="path606" />
      <path
         d="M 517.836,240.08714 H 272.854 c -1.104,0 -2,-0.895 -2,-2 0,-1.104 0.896,-2 2,-2 h 244.982 c 1.105,0 2,0.896 2,2 0,1.105 -0.895,2 -2,2"
         fill="#5d7183"
         id="path608" />
      <path
         d="M 517.836,211.88614 H 272.854 c -1.104,0 -2,-0.895 -2,-2 0,-1.104 0.896,-2 2,-2 h 244.982 c 1.105,0 2,0.896 2,2 0,1.105 -0.895,2 -2,2"
         fill="#5d7183"
         id="path610" />
      <path
         d="M 396.266,268.28714 H 272.854 c -1.104,0 -2,-0.895 -2,-2 0,-1.104 0.896,-2 2,-2 h 123.412 c 1.104,0 2,0.896 2,2 0,1.105 -0.896,2 -2,2"
         fill="#6a79a8"
         id="path612" />
      <path
         d="M 460.423,309.68914 H 330.266 c -1.656,0 -3,-1.344 -3,-3 0,-1.657 1.344,-3 3,-3 h 130.157 c 1.657,0 3,1.343 3,3 0,1.656 -1.343,3 -3,3"
         fill="#bbdff5"
         id="path614" />
      <path
         d="M 517.836,379.19014 H 272.854 c -1.104,0 -2,-0.896 -2,-2 0,-1.105 0.896,-2 2,-2 h 244.982 c 1.105,0 2,0.895 2,2 0,1.104 -0.895,2 -2,2"
         fill="#5d7183"
         id="path616" />
      <path
         d="M 517.836,350.98914 H 272.854 c -1.104,0 -2,-0.895 -2,-2 0,-1.104 0.896,-2 2,-2 h 244.982 c 1.105,0 2,0.896 2,2 0,1.105 -0.895,2 -2,2"
         fill="#5d7183"
         id="path618" />
      <path
         d="M 396.266,407.39014 H 272.854 c -1.104,0 -2,-0.896 -2,-2 0,-1.105 0.896,-2 2,-2 h 123.412 c 1.104,0 2,0.895 2,2 0,1.104 -0.896,2 -2,2"
         fill="#5d7183"
         id="path620" />
      <path
         d="m 122.985,76.120139 0.009,313.477001 c 0,7.631 6.206,13.817 13.861,13.817 l 282.439,-0.009 c 7.655,0 13.861,-6.186 13.861,-13.817 l -0.002,-48.856 -0.233,-26.927 -0.009,-297.692001 c 0,-7.6309999 -6.206,-13.8169999 -13.861,-13.8169999 l -222.253,0.007 -73.811,73.7519999 z"
         fill="#ffffff"
         stroke="#979797"
         id="path622" />
      <path
         d="m 124.985,76.885139 0.009,312.712001 c 0,6.516 5.321,11.817 11.861,11.817 l 282.439,-0.009 c 6.54,0 11.861,-5.3 11.861,-11.817 l -0.002,-48.856 -0.234,-26.909 -0.008,-297.710001 c 0,-3.155 -1.234,-6.1219999 -3.472,-8.3539999 -2.24,-2.233 -5.22,-3.462 -8.389,-3.462 l -221.425,0.006 z m 11.87,328.529001 c -8.746,0 -15.861,-7.096 -15.861,-15.817 L 120.985,76.120139 c 0,-0.014 0,-0.03 0,-0.045 l 0.002,-0.065 c 0.011,-0.515 0.221,-1.006 0.586,-1.37 l 73.81,-73.75199989 c 0.375,-0.375 0.883,-0.585 1.414,-0.585 l 222.253,-0.006 c 4.236,-0.001 8.217,1.64399999 11.213,4.62899999 2.997,2.988 4.648,6.9609999 4.648,11.1869999 l 0.008,297.692001 0.234,26.909 0.002,48.874 c 0,8.722 -7.116,15.817 -15.861,15.817 z"
         fill="#5d7183"
         stroke="#587185"
         stroke-width="4"
         id="path624" />
      <path
         d="m 194.949,7.1311391 -67.136,67.1409999 54.587,-0.002 c 3.353,0 6.505,-1.306 8.875,-3.676 2.37,-2.371 3.676,-5.523 3.676,-8.875 z M 122.985,78.272139 c -0.809,0 -1.538,-0.488 -1.848,-1.235 -0.31,-0.747 -0.139,-1.608 0.434,-2.179 L 195.535,0.88913911 c 0.571,-0.573 1.432,-0.745 2.179,-0.434 0.748,0.31 1.235,1.03899999 1.235,1.84799999 l 0.002,59.4159999 c 0,4.421 -1.722,8.577 -4.848,11.703 -3.126,3.126 -7.282,4.848 -11.703,4.848 z"
         fill="#5d7183"
         stroke="#587185"
         stroke-width="4"
         id="path626" />
      <path
         d="M 340.057,108.00714 H 209.9 c -1.656,0 -3,-1.343 -3,-3 0,-1.657 1.344,-3 3,-3 h 130.157 c 1.657,0 3,1.343 3,3 0,1.657 -1.343,3 -3,3"
         fill="#bbdff5"
         id="path628" />
      <path
         d="M 397.469,177.50814 H 152.488 c -1.105,0 -2,-0.895 -2,-2 0,-1.104 0.895,-2 2,-2 h 244.981 c 1.105,0 2,0.896 2,2 0,1.105 -0.895,2 -2,2"
         fill="#5d7183"
         id="path630" />
      <path
         d="M 397.469,149.30814 H 152.488 c -1.105,0 -2,-0.896 -2,-2 0,-1.105 0.895,-2 2,-2 h 244.981 c 1.105,0 2,0.895 2,2 0,1.104 -0.895,2 -2,2"
         fill="#5d7183"
         id="path632" />
      <path
         d="M 275.899,205.70914 H 152.488 c -1.105,0 -2,-0.896 -2,-2 0,-1.105 0.895,-2 2,-2 h 123.411 c 1.105,0 2,0.895 2,2 0,1.104 -0.895,2 -2,2"
         fill="#5d7183"
         id="path634" />
      <path
         d="M 340.057,247.11014 H 209.9 c -1.656,0 -3,-1.344 -3,-3 0,-1.657 1.344,-3 3,-3 h 130.157 c 1.657,0 3,1.343 3,3 0,1.656 -1.343,3 -3,3"
         fill="#bbdff5"
         id="path636" />
      <path
         d="M 397.469,316.61114 H 152.488 c -1.105,0 -2,-0.896 -2,-2 0,-1.105 0.895,-2 2,-2 h 244.981 c 1.105,0 2,0.895 2,2 0,1.104 -0.895,2 -2,2"
         fill="#5d7183"
         id="path638" />
      <path
         d="M 397.469,288.41014 H 152.488 c -1.105,0 -2,-0.895 -2,-2 0,-1.104 0.895,-2 2,-2 h 244.981 c 1.105,0 2,0.896 2,2 0,1.105 -0.895,2 -2,2"
         fill="#5d7183"
         id="path640" />
      <path
         d="M 275.899,344.81214 H 152.488 c -1.105,0 -2,-0.896 -2,-2 0,-1.105 0.895,-2 2,-2 h 123.411 c 1.105,0 2,0.895 2,2 0,1.104 -0.895,2 -2,2"
         fill="#5d7183"
         id="path642" />
    </g>
    <g
       transform="rotate(180,188.5,78)"
       id="g650">
      <path
         d="M 152.214,76.107 C 152.214,34.074 118.14,0 76.107,0 34.074,0 0,34.074 0,76.107 c 0,42.033 34.074,76.107 76.107,76.107 42.033,0 76.107,-34.074 76.107,-76.107"
         fill="#ffffff"
         stroke="#5d7183"
         stroke-width="7"
         id="path646" />
      <path
         d="m 95.062,22.082 v 54.229 h 31.717 c 3.552,0 5.33,4.294 2.819,6.805 l -50.609,50.609 c -1.591,1.592 -4.172,1.592 -5.764,0 L 22.616,83.116 c -2.511,-2.511 -0.732,-6.805 2.819,-6.805 H 56.159 V 22.082 c 0,-2.643 2.143,-4.786 4.786,-4.786 h 29.331 c 2.643,0 4.786,2.143 4.786,4.786"
         fill="#abefab"
         id="path648" />
    </g>
  </g>
  <style
     type="text/css"
     id="style701">
	.st0{fill:#FFFFFF;}
	.st1{fill:#0172B1;}
	.st2{fill:#7759A6;}
	.st3{fill:#3CBFBD;}
</style>
  <g
     id="g723"
     transform="matrix(2.4961823,0,0,2.4961823,-161.31979,-256.1083)">
    <path
       class="st0"
       d="M 332.3,107.6 H 132.5 c -1.7,0 -3.2,1.4 -3.2,3.2 v 136.4 c 0,1.7 1.4,3.2 3.2,3.2 h 76.1 47.5 76.1 c 1.7,0 3.2,-1.4 3.2,-3.2 V 110.7 c 0,-1.7 -1.4,-3.1 -3.1,-3.1 z M 223.5,236.1 c 0,4.5 -3.7,8.2 -8.2,8.2 H 143 c -4.5,0 -8.2,-3.7 -8.2,-8.2 V 120.7 c 0,-4.5 3.7,-8.2 8.2,-8.2 h 72.3 c 4.5,0 8.2,3.7 8.2,8.2 z m 106.5,0 c 0,4.5 -3.7,8.2 -8.2,8.2 h -82.4 c -4.5,0 -8.2,-3.7 -8.2,-8.2 v -61.4 c 0,-4.5 3.7,-8.2 8.2,-8.2 h 82.4 c 4.5,0 8.2,3.7 8.2,8.2 z m 0,-81.5 c 0,4.5 -3.7,8.2 -8.2,8.2 h -82.4 c -4.5,0 -8.2,-3.7 -8.2,-8.2 v -33.8 c 0,-4.5 3.7,-8.2 8.2,-8.2 h 82.4 c 4.5,0 8.2,3.7 8.2,8.2 z"
       id="path703" />
    <path
       d="M 332.3,102.6 H 132.5 c -4.5,0 -8.2,3.7 -8.2,8.2 v 136.4 c 0,4.5 3.7,8.2 8.2,8.2 h 76.1 V 266 h -30.1 c -2.9,0 -5.3,2.4 -5.3,5.3 v 5.2 c 0,2.9 2.4,5.3 5.3,5.3 h 107.7 c 2.9,0 5.3,-2.4 5.3,-5.3 v -5.2 c 0,-2.9 -2.4,-5.3 -5.3,-5.3 h -30.1 v -10.7 h 76.1 c 4.5,0 8.2,-3.7 8.2,-8.2 V 110.7 c 0,-4.5 -3.6,-8.1 -8.1,-8.1 z m 3.1,144.5 c 0,1.7 -1.4,3.2 -3.2,3.2 h -76.1 -47.5 -76.1 c -1.7,0 -3.2,-1.4 -3.2,-3.2 V 110.7 c 0,-1.7 1.4,-3.2 3.2,-3.2 h 199.7 c 1.7,0 3.2,1.4 3.2,3.2 z m -48.8,24.2 v 5.2 c 0,0.2 -0.1,0.3 -0.3,0.3 H 178.5 c -0.2,0 -0.3,-0.2 -0.3,-0.3 v -5.2 c 0,-0.2 0.2,-0.3 0.3,-0.3 h 30.1 47.5 30.1 c 0.2,0 0.4,0.1 0.4,0.3 z M 251.2,266 h -37.5 v -10.7 h 37.5 z"
       id="path705" />
    <path
       class="st0"
       d="m 208.6,271 h -30.1 c -0.2,0 -0.3,0.1 -0.3,0.3 v 5.2 c 0,0.2 0.2,0.3 0.3,0.3 h 107.7 c 0.2,0 0.3,-0.2 0.3,-0.3 v -5.2 c 0,-0.2 -0.1,-0.3 -0.3,-0.3 h -30.1 z"
       id="path707" />
    <rect
       x="213.60001"
       y="255.3"
       class="st0"
       width="37.5"
       height="10.7"
       id="rect709" />
    <path
       class="st1"
       d="M 215.3,117.5 H 143 c -1.7,0 -3.2,1.4 -3.2,3.2 v 115.4 c 0,1.7 1.4,3.2 3.2,3.2 h 72.3 c 1.7,0 3.2,-1.4 3.2,-3.2 V 120.7 c 0,-1.7 -1.4,-3.2 -3.2,-3.2 z"
       id="path711" />
    <path
       d="M 215.3,112.5 H 143 c -4.5,0 -8.2,3.7 -8.2,8.2 v 115.4 c 0,4.5 3.7,8.2 8.2,8.2 h 72.3 c 4.5,0 8.2,-3.7 8.2,-8.2 V 120.7 c 0,-4.5 -3.6,-8.2 -8.2,-8.2 z m 3.2,123.6 c 0,1.7 -1.4,3.2 -3.2,3.2 H 143 c -1.7,0 -3.2,-1.4 -3.2,-3.2 V 120.7 c 0,-1.7 1.4,-3.2 3.2,-3.2 h 72.3 c 1.7,0 3.2,1.4 3.2,3.2 z"
       id="path713" />
    <path
       class="st2"
       d="m 321.8,117.5 h -82.4 c -1.7,0 -3.2,1.4 -3.2,3.2 v 33.8 c 0,1.7 1.4,3.2 3.2,3.2 h 82.4 c 1.7,0 3.2,-1.4 3.2,-3.2 v -33.8 c 0,-1.7 -1.5,-3.2 -3.2,-3.2 z"
       id="path715" />
    <path
       d="m 321.8,112.5 h -82.4 c -4.5,0 -8.2,3.7 -8.2,8.2 v 33.8 c 0,4.5 3.7,8.2 8.2,8.2 h 82.4 c 4.5,0 8.2,-3.7 8.2,-8.2 v -33.8 c 0,-4.5 -3.7,-8.2 -8.2,-8.2 z m 3.2,42.1 c 0,1.7 -1.4,3.2 -3.2,3.2 h -82.4 c -1.7,0 -3.2,-1.4 -3.2,-3.2 v -33.8 c 0,-1.7 1.4,-3.2 3.2,-3.2 h 82.4 c 1.7,0 3.2,1.4 3.2,3.2 z"
       id="path717" />
    <path
       class="st3"
       d="m 321.8,171.5 h -82.4 c -1.7,0 -3.2,1.4 -3.2,3.2 v 61.4 c 0,1.7 1.4,3.2 3.2,3.2 h 82.4 c 1.7,0 3.2,-1.4 3.2,-3.2 v -61.4 c 0,-1.8 -1.5,-3.2 -3.2,-3.2 z"
       id="path719" />
    <path
       d="m 321.8,166.5 h -82.4 c -4.5,0 -8.2,3.7 -8.2,8.2 v 61.4 c 0,4.5 3.7,8.2 8.2,8.2 h 82.4 c 4.5,0 8.2,-3.7 8.2,-8.2 v -61.4 c 0,-4.5 -3.7,-8.2 -8.2,-8.2 z m 3.2,69.6 c 0,1.7 -1.4,3.2 -3.2,3.2 h -82.4 c -1.7,0 -3.2,-1.4 -3.2,-3.2 v -61.4 c 0,-1.7 1.4,-3.2 3.2,-3.2 h 82.4 c 1.7,0 3.2,1.4 3.2,3.2 z"
       id="path721" />
  </g>
</svg>
